<?xml version="1.0" standalone="no"?><svg xmlns="http://www.w3.org/2000/svg" viewBox="0 0 1440 320"><path fill="#0099ff" fill-opacity="1" d="M0,192L30,160C60,128,120,64,180,74.7C240,85,300,171,360,186.7C420,203,480,149,540,149.3C600,149,660,203,720,213.3C780,224,840,192,900,197.3C960,203,1020,245,1080,250.7C1140,256,1200,224,1260,186.7C1320,149,1380,107,1410,85.3L1440,64L1440,320L1410,320C1380,320,1320,320,1260,320C1200,320,1140,320,1080,320C1020,320,960,320,900,320C840,320,780,320,720,320C660,320,600,320,540,320C480,320,420,320,360,320C300,320,240,320,180,320C120,320,60,320,30,320L0,320Z"></path></svg>